<?xml version="1.0" encoding="UTF-8"?>
<!DOCTYPE svg PUBLIC "-//W3C//DTD SVG 1.1//EN" "http://www.w3.org/Graphics/SVG/1.1/DTD/svg11.dtd">
<svg xmlns="http://www.w3.org/2000/svg" version="1.1" width="500px" height="500px" style="shape-rendering:geometricPrecision; text-rendering:geometricPrecision; image-rendering:optimizeQuality; fill-rule:evenodd; clip-rule:evenodd" xmlns:xlink="http://www.w3.org/1999/xlink">
<g><path style="opacity:1" fill="#978f85" d="M 464.5,80.5 C 463.526,81.635 462.359,82.635 461,83.5C 437.695,83.2054 413.195,82.5387 387.5,81.5C 383.192,82.201 378.859,82.5343 374.5,82.5C 374.172,56.9255 374.505,31.4255 375.5,6C 374.619,5.2917 373.953,4.45837 373.5,3.5C 403.669,2.17026 434.003,2.17026 464.5,3.5C 464.993,29.1325 464.993,54.7992 464.5,80.5 Z"/></g>
<g><path style="opacity:1" fill="#f9faf9" d="M 50.5,7.5 C 51.8333,8.16667 51.8333,8.16667 50.5,7.5 Z"/></g>
<g><path style="opacity:1" fill="#f39c00" d="M 201.5,119.5 C 234.167,119.5 266.833,119.5 299.5,119.5C 299.5,141.5 299.5,163.5 299.5,185.5C 266.833,185.5 234.167,185.5 201.5,185.5C 201.007,187.806 200.674,190.139 200.5,192.5C 199.911,218.826 199.578,245.16 199.5,271.5C 199.291,301.017 199.957,330.35 201.5,359.5C 201.416,373.499 204.916,386.499 212,398.5C 213.839,400.201 215.673,401.868 217.5,403.5C 217.833,404.167 218.167,404.833 218.5,405.5C 223.79,410.613 229.79,414.779 236.5,418C 241.295,419.238 245.961,420.738 250.5,422.5C 255.642,423.647 260.975,424.48 266.5,425C 279.163,425.733 291.83,426.4 304.5,427C 304.467,447.684 304.467,468.518 304.5,489.5C 264.412,495.056 225.745,490.222 188.5,475C 182.464,471.653 176.797,467.82 171.5,463.5C 168.517,460.187 165.183,457.187 161.5,454.5C 153.529,444.578 146.029,434.245 139,423.5C 134.668,412.163 131.334,400.497 129,388.5C 127.878,383.898 127.378,379.232 127.5,374.5C 126.712,311.841 126.212,249.175 126,186.5C 97.9073,185.505 69.7406,185.172 41.5,185.5C 40.5238,165.546 40.1905,145.546 40.5,125.5C 41.8221,125.67 42.9887,125.337 44,124.5C 44.3333,125.167 44.6667,125.833 45,126.5C 45.6514,124.765 45.4847,123.098 44.5,121.5C 72.175,120.228 99.8417,120.228 127.5,121.5C 126.904,84.2622 126.904,47.0955 127.5,10C 149.167,9.33333 170.833,9.33333 192.5,10C 194.556,10.3108 196.556,10.8108 198.5,11.5C 199.086,11.2907 199.586,10.9574 200,10.5C 199.376,38.8005 199.376,67.1338 200,95.5C 200.171,103.677 200.671,111.677 201.5,119.5 Z"/></g>
<g><path style="opacity:1" fill="#645d57" d="M 379.5,9.5 C 405.833,9.5 432.167,9.5 458.5,9.5C 458.5,30.8333 458.5,52.1667 458.5,73.5C 457.566,74.5676 457.232,75.901 457.5,77.5C 431.5,77.5 405.5,77.5 379.5,77.5C 379.5,54.8333 379.5,32.1667 379.5,9.5 Z"/></g>
<g><path style="opacity:1" fill="#f9faf9" d="M 70.5,11.5 C 71.8333,12.1667 71.8333,12.1667 70.5,11.5 Z"/></g>
<g><path style="opacity:1" fill="#f9faf9" d="M 366.5,13.5 C 367.833,14.1667 367.833,14.1667 366.5,13.5 Z"/></g>
<g><path style="opacity:1" fill="#f9bb46" d="M 302.5,115.5 C 303.498,140.328 303.831,165.328 303.5,190.5C 271.5,190.5 239.5,190.5 207.5,190.5C 206.167,219.159 205.5,248.159 205.5,277.5C 205.546,310.508 205.879,343.508 206.5,376.5C 203.969,371.539 202.635,366.372 202.5,361C 202.377,303.829 202.544,246.329 203,188.5C 204.067,187.809 205.234,187.309 206.5,187C 233.5,186.333 260.5,186.333 287.5,187C 282.343,188.283 277.01,188.95 271.5,189C 280.898,189.732 290.231,189.232 299.5,187.5C 300.49,163.878 300.823,140.212 300.5,116.5C 296.123,116.577 291.79,117.077 287.5,118C 259.169,118.5 230.835,118.667 202.5,118.5C 202.802,115.941 202.468,113.607 201.5,111.5C 201.5,77.1667 201.5,42.8333 201.5,8.5C 176.125,8.48086 150.958,8.48086 126,8.5C 125.801,45.1852 125.301,81.8518 124.5,118.5C 121.813,118.664 119.146,118.497 116.5,118C 117.706,116.982 117.373,116.482 115.5,116.5C 90.5496,118.02 65.5496,119.186 40.5,120C 39.8386,130.926 39.5053,141.926 39.5,153C 39.5012,164.188 40.1678,175.021 41.5,185.5C 68.995,186.498 96.6616,186.831 124.5,186.5C 124.333,241.834 124.5,297.168 125,352.5C 125.401,360.03 126.234,367.363 127.5,374.5C 127.378,379.232 127.878,383.898 129,388.5C 131.334,400.497 134.668,412.163 139,423.5C 146.029,434.245 153.529,444.578 161.5,454.5C 160.25,454.577 159.417,455.244 159,456.5C 156.597,455.219 154.763,453.386 153.5,451C 152.255,450.209 150.922,449.709 149.5,449.5C 147.774,447.772 146.441,445.772 145.5,443.5C 145.047,440.537 143.547,438.204 141,436.5C 134.98,426.947 130.814,416.614 128.5,405.5C 128.296,402.455 128.296,399.621 128.5,397C 127.333,396.5 126.5,395.667 126,394.5C 124.519,380.001 123.019,365.668 121.5,351.5C 122.162,297.823 121.496,244.49 119.5,191.5C 91.6716,190.502 63.6716,190.169 35.5,190.5C 35.2694,165.487 35.6028,140.487 36.5,115.5C 64.5079,115.833 92.5079,115.5 120.5,114.5C 121.493,77.8764 121.827,41.2098 121.5,4.5C 149.5,4.5 177.5,4.5 205.5,4.5C 205.5,41.5 205.5,78.5 205.5,115.5C 237.833,115.5 270.167,115.5 302.5,115.5 Z"/></g>
<g><path style="opacity:1" fill="#f7ab1e" d="M 201.5,111.5 C 201.5,114.167 201.5,116.833 201.5,119.5C 200.671,111.677 200.171,103.677 200,95.5C 199.376,67.1338 199.376,38.8005 200,10.5C 199.586,10.9574 199.086,11.2907 198.5,11.5C 196.556,10.8108 194.556,10.3108 192.5,10C 170.833,9.33333 149.167,9.33333 127.5,10C 126.904,47.0955 126.904,84.2622 127.5,121.5C 99.8417,120.228 72.175,120.228 44.5,121.5C 45.4847,123.098 45.6514,124.765 45,126.5C 44.6667,125.833 44.3333,125.167 44,124.5C 42.9887,125.337 41.8221,125.67 40.5,125.5C 40.1905,145.546 40.5238,165.546 41.5,185.5C 40.1678,175.021 39.5012,164.188 39.5,153C 39.5053,141.926 39.8386,130.926 40.5,120C 65.5496,119.186 90.5496,118.02 115.5,116.5C 117.373,116.482 117.706,116.982 116.5,118C 119.146,118.497 121.813,118.664 124.5,118.5C 125.301,81.8518 125.801,45.1852 126,8.5C 150.958,8.48086 176.125,8.48086 201.5,8.5C 201.5,42.8333 201.5,77.1667 201.5,111.5 Z"/></g>
<g><path style="opacity:1" fill="#f9faf9" d="M 362.5,18.5 C 363.833,19.1667 363.833,19.1667 362.5,18.5 Z"/></g>
<g><path style="opacity:1" fill="#f9faf9" d="M 53.5,24.5 C 54.8333,25.1667 54.8333,25.1667 53.5,24.5 Z"/></g>
<g><path style="opacity:1" fill="#f9faf9" d="M 1.5,26.5 C 2.83333,27.1667 2.83333,27.1667 1.5,26.5 Z"/></g>
<g><path style="opacity:1" fill="#f9faf9" d="M 233.5,28.5 C 234.833,29.1667 234.833,29.1667 233.5,28.5 Z"/></g>
<g><path style="opacity:1" fill="#f9faf9" d="M 358.5,33.5 C 359.833,34.1667 359.833,34.1667 358.5,33.5 Z"/></g>
<g><path style="opacity:1" fill="#9f9a92" d="M 373.5,3.5 C 373.953,4.45837 374.619,5.2917 375.5,6C 374.505,31.4255 374.172,56.9255 374.5,82.5C 378.859,82.5343 383.192,82.201 387.5,81.5C 413.195,82.5387 437.695,83.2054 461,83.5C 462.359,82.635 463.526,81.635 464.5,80.5C 465.705,81.6719 465.705,83.0052 464.5,84.5C 434.172,85.6665 403.839,85.8332 373.5,85C 372.168,57.7356 372.168,30.569 373.5,3.5 Z"/></g>
<g><path style="opacity:1" fill="#f9faf9" d="M 110.5,42.5 C 111.833,43.1667 111.833,43.1667 110.5,42.5 Z"/></g>
<g><path style="opacity:1" fill="#f9faf9" d="M 230.5,72.5 C 231.833,73.1667 231.833,73.1667 230.5,72.5 Z"/></g>
<g><path style="opacity:1" fill="#f9faf9" d="M 20.5,74.5 C 21.8333,75.1667 21.8333,75.1667 20.5,74.5 Z"/></g>
<g><path style="opacity:1" fill="#f9faf9" d="M 348.5,75.5 C 349.833,76.1667 349.833,76.1667 348.5,75.5 Z"/></g>
<g><path style="opacity:1" fill="#736d61" d="M 379.5,9.5 C 379.5,32.1667 379.5,54.8333 379.5,77.5C 405.5,77.5 431.5,77.5 457.5,77.5C 457.232,75.901 457.566,74.5676 458.5,73.5C 458.5,75.1667 458.5,76.8333 458.5,78.5C 431.833,78.5 405.167,78.5 378.5,78.5C 378.169,55.3273 378.502,32.3273 379.5,9.5 Z"/></g>
<g><path style="opacity:1" fill="#f9faf9" d="M 50.5,81.5 C 51.8333,82.1667 51.8333,82.1667 50.5,81.5 Z"/></g>
<g><path style="opacity:1" fill="#f9faf9" d="M 294.5,84.5 C 295.833,85.1667 295.833,85.1667 294.5,84.5 Z"/></g>
<g><path style="opacity:1" fill="#f9faf9" d="M 67.5,85.5 C 68.8333,86.1667 68.8333,86.1667 67.5,85.5 Z"/></g>
<g><path style="opacity:1" fill="#f9faf9" d="M 95.5,87.5 C 96.8333,88.1667 96.8333,88.1667 95.5,87.5 Z"/></g>
<g><path style="opacity:1" fill="#f9faf9" d="M 332.5,91.5 C 333.833,92.1667 333.833,92.1667 332.5,91.5 Z"/></g>
<g><path style="opacity:1" fill="#f9faf9" d="M 325.5,95.5 C 326.833,96.1667 326.833,96.1667 325.5,95.5 Z"/></g>
<g><path style="opacity:1" fill="#f9faf9" d="M 387.5,100.5 C 388.833,101.167 388.833,101.167 387.5,100.5 Z"/></g>
<g><path style="opacity:1" fill="#f9faf9" d="M 53.5,101.5 C 54.8333,102.167 54.8333,102.167 53.5,101.5 Z"/></g>
<g><path style="opacity:1" fill="#f9faf9" d="M 17.5,110.5 C 18.8333,111.167 18.8333,111.167 17.5,110.5 Z"/></g>
<g><path style="opacity:1" fill="#f2c880" d="M 119.5,113.5 C 91.113,113.85 62.7796,114.85 34.5,116.5C 34.5,115.5 34.5,114.5 34.5,113.5C 62.8333,113.5 91.1667,113.5 119.5,113.5 Z"/></g>
<g><path style="opacity:1" fill="#f9faf9" d="M 420.5,117.5 C 421.833,118.167 421.833,118.167 420.5,117.5 Z"/></g>
<g><path style="opacity:1" fill="#f9faf9" d="M 425.5,119.5 C 426.833,120.167 426.833,120.167 425.5,119.5 Z"/></g>
<g><path style="opacity:1" fill="#fab93a" d="M 201.5,111.5 C 202.468,113.607 202.802,115.941 202.5,118.5C 230.835,118.667 259.169,118.5 287.5,118C 291.79,117.077 296.123,116.577 300.5,116.5C 300.823,140.212 300.49,163.878 299.5,187.5C 290.231,189.232 280.898,189.732 271.5,189C 277.01,188.95 282.343,188.283 287.5,187C 260.5,186.333 233.5,186.333 206.5,187C 205.234,187.309 204.067,187.809 203,188.5C 202.544,246.329 202.377,303.829 202.5,361C 202.635,366.372 203.969,371.539 206.5,376.5C 207.347,383.275 209.514,389.609 213,395.5C 215.692,396.721 217.858,398.554 219.5,401C 218.944,402.011 218.278,402.844 217.5,403.5C 215.673,401.868 213.839,400.201 212,398.5C 204.916,386.499 201.416,373.499 201.5,359.5C 201.832,303.664 201.499,247.998 200.5,192.5C 200.674,190.139 201.007,187.806 201.5,185.5C 234.167,185.5 266.833,185.5 299.5,185.5C 299.5,163.5 299.5,141.5 299.5,119.5C 266.833,119.5 234.167,119.5 201.5,119.5C 201.5,116.833 201.5,114.167 201.5,111.5 Z"/></g>
<g><path style="opacity:1" fill="#f1c072" d="M 208.5,113.5 C 239.833,114.167 271.167,114.833 302.5,115.5C 270.167,115.5 237.833,115.5 205.5,115.5C 205.5,78.5 205.5,41.5 205.5,4.5C 177.5,4.5 149.5,4.5 121.5,4.5C 121.827,41.2098 121.493,77.8764 120.5,114.5C 92.5079,115.5 64.5079,115.833 36.5,115.5C 35.6028,140.487 35.2694,165.487 35.5,190.5C 63.6716,190.169 91.6716,190.502 119.5,191.5C 91.1667,191.5 62.8333,191.5 34.5,191.5C 34.5,166.5 34.5,141.5 34.5,116.5C 62.7796,114.85 91.113,113.85 119.5,113.5C 119.333,77.1651 119.5,40.8318 120,4.5C 134.279,3.17521 148.779,2.50854 163.5,2.5C 178.073,2.50398 192.573,2.83731 207,3.5C 207.167,40.3356 207.667,77.0023 208.5,113.5 Z"/></g>
<g><path style="opacity:1" fill="#988f85" d="M 310.5,423.5 C 310.5,422.5 310.5,421.5 310.5,420.5C 310.833,420.5 311.167,420.5 311.5,420.5C 325.793,420.335 340.126,419.502 354.5,418C 360.229,417.568 365.562,415.902 370.5,413C 372.487,411.681 373.654,409.848 374,407.5C 375.276,396.873 375.776,386.207 375.5,375.5C 376.327,380.651 376.827,385.984 377,391.5C 377.396,330.999 377.896,270.499 378.5,210C 378.582,182.793 377.916,155.626 376.5,128.5C 404.902,127.168 433.402,127.168 462,128.5C 462.667,214.5 462.667,300.5 462,386.5C 461.849,411.783 455.182,435.116 442,456.5C 427.168,474.796 408.001,485.63 384.5,489C 361.748,492.188 338.914,494.688 316,496.5C 314.129,496.291 312.962,495.291 312.5,493.5C 312.251,471.307 312.585,448.807 313.5,426C 313.252,424.251 312.252,423.418 310.5,423.5 Z"/></g>
<g><path style="opacity:1" fill="#f9faf9" d="M 11.5,135.5 C 12.8333,136.167 12.8333,136.167 11.5,135.5 Z"/></g>
<g><path style="opacity:1" fill="#645d57" d="M 454.5,400.5 C 452.247,422.434 444.413,442.1 431,459.5C 416.258,473.182 398.758,481.016 378.5,483C 358.989,486.536 339.322,488.37 319.5,488.5C 319.5,467.833 319.5,447.167 319.5,426.5C 335.777,427.593 351.777,426.093 367.5,422C 375.578,419.331 379.911,413.831 380.5,405.5C 381.302,404.048 381.802,402.382 382,400.5C 382.5,311.834 382.667,223.167 382.5,134.5C 406.833,134.5 431.167,134.5 455.5,134.5C 455.805,223.176 455.471,311.842 454.5,400.5 Z"/></g>
<g><path style="opacity:1" fill="#f9faf9" d="M 496.5,137.5 C 497.833,138.167 497.833,138.167 496.5,137.5 Z"/></g>
<g><path style="opacity:1" fill="#f9faf9" d="M 332.5,160.5 C 333.833,161.167 333.833,161.167 332.5,160.5 Z"/></g>
<g><path style="opacity:1" fill="#e9c170" d="M 208.5,113.5 C 240.5,113.5 272.5,113.5 304.5,113.5C 304.5,139.5 304.5,165.5 304.5,191.5C 272.167,191.5 239.833,191.5 207.5,191.5C 207.5,191.167 207.5,190.833 207.5,190.5C 239.5,190.5 271.5,190.5 303.5,190.5C 303.831,165.328 303.498,140.328 302.5,115.5C 271.167,114.833 239.833,114.167 208.5,113.5 Z"/></g>
<g><path style="opacity:1" fill="#9a978f" d="M 376.5,128.5 C 377.916,155.626 378.582,182.793 378.5,210C 377.896,270.499 377.396,330.999 377,391.5C 376.827,385.984 376.327,380.651 375.5,375.5C 375.167,292.998 375.501,210.665 376.5,128.5 Z"/></g>
<g><path style="opacity:1" fill="#f9faf9" d="M 357.5,192.5 C 358.833,193.167 358.833,193.167 357.5,192.5 Z"/></g>
<g><path style="opacity:1" fill="#f9faf9" d="M 294.5,194.5 C 295.833,195.167 295.833,195.167 294.5,194.5 Z"/></g>
<g><path style="opacity:1" fill="#f9faf9" d="M 52.5,198.5 C 53.8333,199.167 53.8333,199.167 52.5,198.5 Z"/></g>
<g><path style="opacity:1" fill="#fab531" d="M 41.5,185.5 C 69.7406,185.172 97.9073,185.505 126,186.5C 126.212,249.175 126.712,311.841 127.5,374.5C 126.234,367.363 125.401,360.03 125,352.5C 124.5,297.168 124.333,241.834 124.5,186.5C 96.6616,186.831 68.995,186.498 41.5,185.5 Z"/></g>
<g><path style="opacity:1" fill="#f9faf9" d="M 295.5,211.5 C 296.833,212.167 296.833,212.167 295.5,211.5 Z"/></g>
<g><path style="opacity:1" fill="#f5b77f" d="M 119.5,191.5 C 121.496,244.49 122.162,297.823 121.5,351.5C 121.5,359.167 121.5,366.833 121.5,374.5C 120.67,364.008 120.17,353.341 120,342.5C 119.5,292.168 119.333,241.834 119.5,191.5 Z"/></g>
<g><path style="opacity:1" fill="#f4a60e" d="M 200.5,192.5 C 201.499,247.998 201.832,303.664 201.5,359.5C 199.957,330.35 199.291,301.017 199.5,271.5C 199.578,245.16 199.911,218.826 200.5,192.5 Z"/></g>
<g><path style="opacity:1" fill="#f9faf9" d="M 99.5,239.5 C 100.833,240.167 100.833,240.167 99.5,239.5 Z"/></g>
<g><path style="opacity:1" fill="#81766f" d="M 454.5,400.5 C 455.471,311.842 455.805,223.176 455.5,134.5C 431.167,134.5 406.833,134.5 382.5,134.5C 382.667,223.167 382.5,311.834 382,400.5C 381.802,402.382 381.302,404.048 380.5,405.5C 381.485,314.849 381.818,224.182 381.5,133.5C 406.5,133.5 431.5,133.5 456.5,133.5C 456.667,219.501 456.5,305.501 456,391.5C 455.819,394.695 455.319,397.695 454.5,400.5 Z"/></g>
<g><path style="opacity:1" fill="#f9faf9" d="M 338.5,257.5 C 339.833,258.167 339.833,258.167 338.5,257.5 Z"/></g>
<g><path style="opacity:1" fill="#f9faf9" d="M 294.5,261.5 C 295.833,262.167 295.833,262.167 294.5,261.5 Z"/></g>
<g><path style="opacity:1" fill="#f9faf9" d="M 250.5,262.5 C 251.833,263.167 251.833,263.167 250.5,262.5 Z"/></g>
<g><path style="opacity:1" fill="#f9faf9" d="M 300.5,262.5 C 301.833,263.167 301.833,263.167 300.5,262.5 Z"/></g>
<g><path style="opacity:1" fill="#f9faf9" d="M 23.5,271.5 C 24.8333,272.167 24.8333,272.167 23.5,271.5 Z"/></g>
<g><path style="opacity:1" fill="#f5c16b" d="M 207.5,190.5 C 207.5,190.833 207.5,191.167 207.5,191.5C 207.333,251.168 207.5,310.834 208,370.5C 209.848,381.523 214.348,391.189 221.5,399.5C 221.392,401.514 222.058,403.18 223.5,404.5C 221.883,405.038 220.216,405.371 218.5,405.5C 218.167,404.833 217.833,404.167 217.5,403.5C 218.278,402.844 218.944,402.011 219.5,401C 217.858,398.554 215.692,396.721 213,395.5C 209.514,389.609 207.347,383.275 206.5,376.5C 205.879,343.508 205.546,310.508 205.5,277.5C 205.5,248.159 206.167,219.159 207.5,190.5 Z"/></g>
<g><path style="opacity:1" fill="#f9faf9" d="M 95.5,278.5 C 96.8333,279.167 96.8333,279.167 95.5,278.5 Z"/></g>
<g><path style="opacity:1" fill="#f9faf9" d="M 490.5,293.5 C 491.833,294.167 491.833,294.167 490.5,293.5 Z"/></g>
<g><path style="opacity:1" fill="#f9faf9" d="M 26.5,300.5 C 27.8333,301.167 27.8333,301.167 26.5,300.5 Z"/></g>
<g><path style="opacity:1" fill="#f9faf9" d="M 322.5,314.5 C 323.833,315.167 323.833,315.167 322.5,314.5 Z"/></g>
<g><path style="opacity:1" fill="#f9faf9" d="M 331.5,327.5 C 332.833,328.167 332.833,328.167 331.5,327.5 Z"/></g>
<g><path style="opacity:1" fill="#f9faf9" d="M 41.5,331.5 C 42.8333,332.167 42.8333,332.167 41.5,331.5 Z"/></g>
<g><path style="opacity:1" fill="#f9faf9" d="M 217.5,333.5 C 218.833,334.167 218.833,334.167 217.5,333.5 Z"/></g>
<g><path style="opacity:1" fill="#f9faf9" d="M 113.5,337.5 C 114.833,338.167 114.833,338.167 113.5,337.5 Z"/></g>
<g><path style="opacity:1" fill="#f9faf9" d="M 275.5,346.5 C 276.833,347.167 276.833,347.167 275.5,346.5 Z"/></g>
<g><path style="opacity:1" fill="#f9faf9" d="M 0.5,356.5 C 1.83333,357.167 1.83333,357.167 0.5,356.5 Z"/></g>
<g><path style="opacity:1" fill="#f9faf9" d="M 315.5,369.5 C 316.833,370.167 316.833,370.167 315.5,369.5 Z"/></g>
<g><path style="opacity:1" fill="#f3c26a" d="M 121.5,351.5 C 123.019,365.668 124.519,380.001 126,394.5C 126.5,395.667 127.333,396.5 128.5,397C 128.296,399.621 128.296,402.455 128.5,405.5C 127.797,403.371 126.797,401.371 125.5,399.5C 123.431,391.413 122.097,383.08 121.5,374.5C 121.5,366.833 121.5,359.167 121.5,351.5 Z"/></g>
<g><path style="opacity:1" fill="#f9faf9" d="M 24.5,375.5 C 25.8333,376.167 25.8333,376.167 24.5,375.5 Z"/></g>
<g><path style="opacity:1" fill="#f9faf9" d="M 340.5,398.5 C 341.833,399.167 341.833,399.167 340.5,398.5 Z"/></g>
<g><path style="opacity:1" fill="#f0cb87" d="M 221.5,399.5 C 231.632,409.233 243.632,415.233 257.5,417.5C 244.528,417.071 233.195,412.738 223.5,404.5C 222.058,403.18 221.392,401.514 221.5,399.5 Z"/></g>
<g><path style="opacity:1" fill="#f6d7a0" d="M 259.5,417.5 C 276.187,418.926 292.853,419.26 309.5,418.5C 310.522,418.855 311.189,419.522 311.5,420.5C 311.167,420.5 310.833,420.5 310.5,420.5C 302.833,420.5 295.167,420.5 287.5,420.5C 277.854,420.196 268.521,419.196 259.5,417.5 Z"/></g>
<g><path style="opacity:1" fill="#f9faf9" d="M 40.5,419.5 C 41.8333,420.167 41.8333,420.167 40.5,419.5 Z"/></g>
<g><path style="opacity:1" fill="#f9faf9" d="M 55.5,429.5 C 56.8333,430.167 56.8333,430.167 55.5,429.5 Z"/></g>
<g><path style="opacity:1" fill="#f9faf9" d="M 476.5,429.5 C 477.833,430.167 477.833,430.167 476.5,429.5 Z"/></g>
<g><path style="opacity:1" fill="#f9faf9" d="M 496.5,430.5 C 497.833,431.167 497.833,431.167 496.5,430.5 Z"/></g>
<g><path style="opacity:1" fill="#eecb86" d="M 125.5,399.5 C 126.797,401.371 127.797,403.371 128.5,405.5C 130.814,416.614 134.98,426.947 141,436.5C 143.547,438.204 145.047,440.537 145.5,443.5C 134.539,430.904 127.873,416.237 125.5,399.5 Z"/></g>
<g><path style="opacity:1" fill="#f8ae23" d="M 250.5,422.5 C 268.698,423.869 286.864,424.869 305,425.5C 305.829,447.004 305.663,468.337 304.5,489.5C 304.467,468.518 304.467,447.684 304.5,427C 291.83,426.4 279.163,425.733 266.5,425C 260.975,424.48 255.642,423.647 250.5,422.5 Z"/></g>
<g><path style="opacity:1" fill="#f4bf5e" d="M 287.5,420.5 C 295.167,420.5 302.833,420.5 310.5,420.5C 310.5,421.5 310.5,422.5 310.5,423.5C 310.5,425.167 310.5,426.833 310.5,428.5C 309.503,450.66 309.169,472.994 309.5,495.5C 291.5,495.5 273.5,495.5 255.5,495.5C 255.5,495.167 255.5,494.833 255.5,494.5C 273.167,494.5 290.833,494.5 308.5,494.5C 308.5,470.167 308.5,445.833 308.5,421.5C 301.313,421.825 294.313,421.491 287.5,420.5 Z"/></g>
<g><path style="opacity:1" fill="#f9faf9" d="M 455.5,441.5 C 456.833,442.167 456.833,442.167 455.5,441.5 Z"/></g>
<g><path style="opacity:1" fill="#e5bd7a" d="M 310.5,428.5 C 310.535,451.018 310.535,473.684 310.5,496.5C 289.66,496.831 268.993,496.497 248.5,495.5C 250.833,495.5 253.167,495.5 255.5,495.5C 273.5,495.5 291.5,495.5 309.5,495.5C 309.169,472.994 309.503,450.66 310.5,428.5 Z"/></g>
<g><path style="opacity:1" fill="#f8bb42" d="M 161.5,454.5 C 165.183,457.187 168.517,460.187 171.5,463.5C 166.704,464.067 163.038,462.401 160.5,458.5C 161.246,457.264 161.579,455.93 161.5,454.5 Z"/></g>
<g><path style="opacity:1" fill="#f9faf9" d="M 443.5,460.5 C 444.833,461.167 444.833,461.167 443.5,460.5 Z"/></g>
<g><path style="opacity:1" fill="#f9faf9" d="M 27.5,464.5 C 28.8333,465.167 28.8333,465.167 27.5,464.5 Z"/></g>
<g><path style="opacity:1" fill="#f9faf9" d="M 140.5,469.5 C 141.833,470.167 141.833,470.167 140.5,469.5 Z"/></g>
<g><path style="opacity:1" fill="#f0c373" d="M 149.5,449.5 C 150.922,449.709 152.255,450.209 153.5,451C 154.763,453.386 156.597,455.219 159,456.5C 159.417,455.244 160.25,454.577 161.5,454.5C 161.579,455.93 161.246,457.264 160.5,458.5C 163.038,462.401 166.704,464.067 171.5,463.5C 170.972,464.847 170.805,466.181 171,467.5C 175.819,472.015 181.319,475.182 187.5,477C 186.007,478.156 186.174,478.99 188,479.5C 192.294,479.888 196.127,481.388 199.5,484C 211.282,487.853 223.282,490.853 235.5,493C 242.128,494.052 248.794,494.552 255.5,494.5C 255.5,494.833 255.5,495.167 255.5,495.5C 253.167,495.5 250.833,495.5 248.5,495.5C 219.146,494.326 192.479,485.493 168.5,469C 161.32,463.32 154.987,456.82 149.5,449.5 Z"/></g>
<g><path style="opacity:1" fill="#f9bb45" d="M 223.5,404.5 C 233.195,412.738 244.528,417.071 257.5,417.5C 258.167,417.5 258.833,417.5 259.5,417.5C 268.521,419.196 277.854,420.196 287.5,420.5C 294.313,421.491 301.313,421.825 308.5,421.5C 308.5,445.833 308.5,470.167 308.5,494.5C 290.833,494.5 273.167,494.5 255.5,494.5C 248.794,494.552 242.128,494.052 235.5,493C 223.282,490.853 211.282,487.853 199.5,484C 196.127,481.388 192.294,479.888 188,479.5C 186.174,478.99 186.007,478.156 187.5,477C 181.319,475.182 175.819,472.015 171,467.5C 170.805,466.181 170.972,464.847 171.5,463.5C 176.797,467.82 182.464,471.653 188.5,475C 225.745,490.222 264.412,495.056 304.5,489.5C 305.663,468.337 305.829,447.004 305,425.5C 286.864,424.869 268.698,423.869 250.5,422.5C 245.961,420.738 241.295,419.238 236.5,418C 229.79,414.779 223.79,410.613 218.5,405.5C 220.216,405.371 221.883,405.038 223.5,404.5 Z"/></g>
<g><path style="opacity:1" fill="#f9faf9" d="M 333.5,497.5 C 334.833,498.167 334.833,498.167 333.5,497.5 Z"/></g>
</svg>
